<svg width="800" height="1000" viewBox="0 0 800 1000" xmlns="http://www.w3.org/2000/svg">
  <defs>
    <linearGradient id="mapBg" x1="0%" y1="0%" x2="100%" y2="100%">
      <stop offset="0%" stop-color="#f3e9d2"/>
      <stop offset="100%" stop-color="#e6d5ad"/>
    </linearGradient>
    <filter id="mapPaper">
      <feTurbulence type="fractalNoise" baseFrequency="0.9" numOctaves="3" result="noise" seed="7"/>
      <feColorMatrix in="noise" type="matrix" values="0 0 0 0 0  0 0 0 0 0  0 0 0 0 0  0 0 0 0.04 0"/>
    </filter>
  </defs>
  <rect width="800" height="1000" fill="url(#mapBg)"/>
  <rect width="800" height="1000" filter="url(#mapPaper)"/>
  <!-- border frame -->
  <rect x="40" y="40" width="720" height="920" fill="none" stroke="#8a6a3c" stroke-width="3"/>
  <rect x="55" y="55" width="690" height="890" fill="none" stroke="#8a6a3c" stroke-width="1"/>
  <!-- decorative compass rose -->
  <g transform="translate(400,300)" stroke="#8a6a3c" fill="none" stroke-width="1.5">
    <circle r="90"/>
    <circle r="60"/>
    <line x1="-90" y1="0" x2="90" y2="0"/>
    <line x1="0" y1="-90" x2="0" y2="90"/>
    <line x1="-64" y1="-64" x2="64" y2="64"/>
    <line x1="-64" y1="64" x2="64" y2="-64"/>
    <path d="M0,-90 L10,-10 L0,0 L-10,-10 Z" fill="#8a6a3c" stroke="none"/>
  </g>
  <text x="400" y="245" font-family="Georgia, serif" font-size="22" fill="#5c4324" text-anchor="middle" letter-spacing="6">N</text>
  <!-- river-like winding line -->
  <path d="M100,700 C200,650 250,750 350,720 C450,690 500,780 650,740" stroke="#7a8c6f" stroke-width="6" fill="none" opacity="0.6"/>
  <!-- block "streets" -->
  <g stroke="#8a6a3c" stroke-width="1" opacity="0.5">
    <line x1="120" y1="450" x2="680" y2="450"/>
    <line x1="120" y1="500" x2="680" y2="500"/>
    <line x1="120" y1="550" x2="680" y2="550"/>
    <line x1="200" y1="420" x2="200" y2="600"/>
    <line x1="320" y1="420" x2="320" y2="600"/>
    <line x1="480" y1="420" x2="480" y2="600"/>
    <line x1="600" y1="420" x2="600" y2="600"/>
  </g>
  <!-- title plate -->
  <rect x="180" y="840" width="440" height="100" fill="none" stroke="#5c4324" stroke-width="1.5"/>
  <text x="400" y="880" font-family="Georgia, serif" font-size="26" fill="#5c4324" text-anchor="middle" letter-spacing="4">OLD CITY MAP</text>
  <text x="400" y="908" font-family="Georgia, serif" font-size="13" fill="#7a6242" text-anchor="middle" letter-spacing="3">EST. ANNO MDCCCXX</text>
  <!-- small ornaments -->
  <circle cx="120" cy="120" r="4" fill="#8a6a3c"/>
  <circle cx="680" cy="120" r="4" fill="#8a6a3c"/>
  <circle cx="120" cy="880" r="4" fill="#8a6a3c"/>
</svg>
