<svg width="800" height="1000" viewBox="0 0 800 1000" xmlns="http://www.w3.org/2000/svg">
  <defs>
    <radialGradient id="toteBg" cx="50%" cy="35%" r="75%">
      <stop offset="0%" stop-color="#faf8f4"/>
      <stop offset="100%" stop-color="#e6ddc8"/>
    </radialGradient>
    <linearGradient id="canvasBody" x1="0%" y1="0%" x2="100%" y2="0%">
      <stop offset="0%" stop-color="#efe7d6"/>
      <stop offset="50%" stop-color="#e3d8bd"/>
      <stop offset="100%" stop-color="#d0c2a0"/>
    </linearGradient>
    <filter id="canvasGrain">
      <feTurbulence type="fractalNoise" baseFrequency="1.4" numOctaves="2" seed="9" result="n"/>
      <feColorMatrix in="n" type="matrix" values="0 0 0 0 0  0 0 0 0 0  0 0 0 0 0  0 0 0 0.06 0"/>
    </filter>
  </defs>
  <rect width="800" height="1000" fill="url(#toteBg)"/>
  <ellipse cx="400" cy="840" rx="220" ry="36" fill="#7a6a4a" opacity="0.18"/>

  <!-- tote handles -->
  <path d="M310,300 C310,200 350,150 400,150 C450,150 490,200 490,300" fill="none" stroke="#bba87e" stroke-width="16" stroke-linecap="round"/>
  <path d="M310,300 C310,210 345,165 400,165 C455,165 490,210 490,300" fill="none" stroke="#d8c9a3" stroke-width="6" stroke-linecap="round" opacity="0.6"/>

  <!-- tote body -->
  <path d="M240,300 L560,300 L600,780 C600,810 560,830 400,830 C240,830 200,810 200,780 Z"
    fill="url(#canvasBody)" stroke="#b8a87f" stroke-width="2"/>
  <path d="M240,300 L560,300 L600,780 C600,810 560,830 400,830 C240,830 200,810 200,780 Z"
    filter="url(#canvasGrain)"/>

  <!-- stitching lines -->
  <path d="M250,320 L550,320" stroke="#a89568" stroke-width="2" stroke-dasharray="6 6" opacity="0.6"/>

  <!-- center emblem -->
  <g transform="translate(400,560)">
    <rect x="-130" y="-100" width="260" height="200" fill="none" stroke="#8a6a3c" stroke-width="2"/>
    <rect x="-114" y="-84" width="228" height="168" fill="none" stroke="#8a6a3c" stroke-width="1" opacity="0.6"/>
    <text x="0" y="-15" font-family="Cormorant Garamond, Georgia, serif" font-size="40" fill="#5c4a2a" text-anchor="middle">EST.</text>
    <text x="0" y="40" font-family="Cormorant Garamond, Georgia, serif" font-size="40" fill="#5c4a2a" text-anchor="middle">HOME</text>
  </g>

  <text x="400" y="920" font-family="Georgia, serif" font-size="20" fill="#5c5340" text-anchor="middle" letter-spacing="5">CANVAS TOTE BAG</text>
  <text x="400" y="950" font-family="Georgia, serif" font-size="12" fill="#9c8c68" text-anchor="middle" letter-spacing="3">HEAVYWEIGHT COTTON CANVAS</text>
</svg>
